<svg width="142" height="22" viewBox="0 0 142 22" fill="none" xmlns="http://www.w3.org/2000/svg">
<path d="M87.0034 5.41054C88.4532 4.11236 89.999 2.7272 90.76 2.03897C91.1848 1.65299 90.8548 0.991943 90.2487 0.991943H87.5567C87.3647 0.991943 87.1786 1.06588 87.0466 1.19309C86.3985 1.82478 84.315 3.72204 82.4571 5.41054C82.2126 5.63261 81.9723 5.85126 81.7397 6.0629L81.705 6.0944C81.5341 6.24994 81.3675 6.40156 81.2065 6.54781C80.8545 6.86779 80.5314 7.16265 80.2504 7.41946C79.8749 7.76249 80.1439 8.34504 80.6772 8.34504H83.7221L83.7233 8.34395H86.6666C88.4129 8.34395 89.8285 9.62637 89.8285 11.2082V14.2293H76.9493C75.9802 14.2293 75.1947 13.5175 75.1947 12.6397V4.47442C75.1947 4.17423 74.9259 3.93079 74.5946 3.93079H72.5639C72.2324 3.93079 71.9638 4.17423 71.9638 4.47442V12.9343C71.9638 15.2752 74.0581 17.1735 76.6421 17.1746L88.3954 17.1812C88.4962 17.1812 88.597 17.1779 88.6966 17.1725H92.476C92.8074 17.1725 93.0761 16.929 93.0761 16.6288V10.9118C93.0761 7.87361 90.3572 5.41054 87.0034 5.41054Z" fill="#00B088"/>
<path d="M129.407 5.41071H137.118C139.703 5.41071 141.799 7.30916 141.799 9.651V12.941C141.799 15.2829 139.703 17.1813 137.118 17.1813H129.407C129.075 17.1813 128.807 16.9379 128.807 16.6377V14.7735C128.807 14.4732 129.075 14.2299 129.407 14.2299H137.231C137.96 14.2299 138.551 13.6944 138.551 13.0339V9.54031C138.551 8.87981 137.96 8.34434 137.231 8.34434H129.407C129.075 8.34434 128.807 8.10101 128.807 7.80071V5.95433C128.807 5.65414 129.075 5.41071 129.407 5.41071Z" fill="#00B088"/>
<path fill-rule="evenodd" clip-rule="evenodd" d="M51.0397 5.42221C51.982 5.42221 52.8587 5.67369 53.5941 6.10598C54.8821 6.86488 55.7344 8.18176 55.7344 9.67728V12.9412C55.7344 15.2904 53.633 17.1963 51.0397 17.1963H47.7817C47.621 17.1963 47.47 17.139 47.3555 17.0353L45.8995 15.6985V16.5147C45.8995 16.8545 45.6243 17.139 45.264 17.1875L36.3963 17.1919C36.2721 17.1853 36.1576 17.1456 36.0626 17.0772C36.0432 17.064 36.0238 17.0507 36.0066 17.0353L34.5505 15.6985V16.5147C34.5505 16.8545 34.2753 17.139 33.915 17.1875L22.8747 17.1941C22.1561 17.1941 21.4965 16.9735 21.4014 16.9405C20.8585 16.7618 20.3641 16.4971 19.9357 16.1596H19.9331C19.1807 16.7507 18.2714 17.1279 17.2146 17.1875C17.2146 17.1875 12.2298 17.1963 12.2102 17.1941C12.0715 17.1831 11.7619 17.1279 11.6621 17.0353L10.2667 15.7713L10.2473 15.7471L10.2083 15.7008V17.3363C10.2083 19.6834 8.10449 21.5892 5.51365 21.5892L1.05161 21.596C0.720477 21.596 0.450195 21.3533 0.450195 21.051V19.1804C0.450195 18.8783 0.720477 18.6356 1.05161 18.6356H5.20436C6.1297 18.6356 6.88702 17.9893 6.95759 17.171C6.96251 17.1268 6.96491 17.0488 6.96491 17.0046V14.2471L6.95279 14.2317L6.96491 14.2272V5.9692C6.96491 5.85015 7.00632 5.7399 7.07929 5.65162C7.18647 5.51266 7.36673 5.42221 7.56884 5.42221H9.60448C9.93801 5.42221 10.2083 5.66706 10.2083 5.9692V12.9434L10.2108 12.9412C10.2108 13.0797 10.2121 13.2642 10.2135 13.4503C10.2162 13.8274 10.2189 14.2109 10.2108 14.2317H10.4274L17.0429 14.2405C17.6516 14.2272 18.1557 13.8434 18.2944 13.3295C18.3212 13.2367 18.3334 13.1419 18.3334 13.0427V5.96703C18.3334 5.70239 18.5428 5.48396 18.8155 5.43101C18.835 5.42884 18.8544 5.42666 18.8739 5.42438L18.8795 5.4238C18.8803 5.42369 18.8808 5.42359 18.8808 5.4235C18.8808 5.42221 18.7848 5.42221 18.0966 5.42221H29.0177C30.4013 5.42221 30.9224 5.50603 31.4045 5.65825C31.4069 5.66042 31.4118 5.66042 31.4142 5.66042C33.2429 6.24058 34.5555 7.81993 34.5555 9.67511V12.9412C34.5555 13.0797 34.5568 13.2642 34.5581 13.4503C34.5608 13.8274 34.5636 14.2109 34.5555 14.2317L41.3436 14.2427C42.0741 14.2427 42.6682 13.7044 42.6682 13.0427V5.96703C42.6682 5.66706 42.9385 5.42221 43.2697 5.42221H51.0397ZM51.1518 14.2339C51.8823 14.2339 52.4764 13.6979 52.4764 13.0339V9.56488C52.4764 8.90307 51.8823 8.36487 51.1518 8.36487H45.9166V12.9412C45.9166 13.3934 45.8387 13.8258 45.6974 14.2339H51.1518ZM31.2973 14.2317V9.56487C31.2973 9.50963 31.2924 9.45234 31.2827 9.39939V9.39504C31.1926 8.81259 30.6423 8.36704 29.9727 8.36704H28.0948V12.9412C28.0948 13.3912 28.0168 13.8258 27.8731 14.2339L31.2973 14.2317ZM23.6776 14.2339C24.335 14.1633 24.8464 13.6559 24.8464 13.0427V8.36704H21.5572L21.5596 13.0427C21.5596 13.1022 21.5644 13.1595 21.5741 13.217C21.6595 13.7508 22.1319 14.1721 22.7285 14.2339C22.7333 14.236 22.7406 14.236 22.7454 14.236L23.6776 14.2339Z" fill="#00B088"/>
<path d="M67.7095 3.93072H69.7402C70.0716 3.93072 70.3403 4.17416 70.3403 4.47435V12.9343C70.3403 15.2751 68.2448 17.1735 65.662 17.1746L57.9478 17.1806C57.6162 17.181 57.3472 16.9374 57.3472 16.637V14.7728C57.3472 14.4725 57.6158 14.2292 57.9473 14.2292H65.3547C66.3238 14.2292 67.1094 13.5176 67.1094 12.6397V4.47435C67.1094 4.17416 67.378 3.93072 67.7095 3.93072Z" fill="#00B088"/>
<path d="M127.183 8.88883V12.941C127.183 15.2829 125.088 17.1813 122.503 17.1813H119.309C119.15 17.1813 118.997 17.124 118.885 17.0221L117.493 15.7614L117.433 15.6896V16.5029C117.433 16.8421 117.158 17.1237 116.798 17.1726H113.049C112.952 17.1791 112.856 17.1813 112.757 17.1813H109.301V17.3455C109.301 19.6873 107.205 21.5858 104.62 21.5858H99.3824C96.7973 21.5858 94.7017 19.6873 94.7017 17.3455V11.8309C94.7017 11.5306 94.9704 11.2873 95.3018 11.2873H97.3601C97.6914 11.2873 97.9601 11.5306 97.9601 11.8309V17.4477C97.9601 18.1082 98.5512 18.6437 99.2803 18.6437H104.743C105.472 18.6437 106.063 18.1082 106.063 17.4477V17.1813H103.422C103.091 17.1813 102.822 16.9379 102.822 16.6377V14.773C102.822 14.5882 102.924 14.4251 103.079 14.3284C103.176 14.2653 103.295 14.2294 103.422 14.2294H112.87C112.898 14.2294 112.924 14.2283 112.95 14.2272H114.19V9.5401C114.19 8.88013 113.6 8.34412 112.87 8.34412H107.287C106.753 8.34412 106.485 7.75809 106.863 7.4156L107.572 6.77412L108.901 5.56945C109.013 5.46833 109.165 5.41071 109.325 5.41071H112.757C113.297 5.41071 113.816 5.49334 114.298 5.64555C114.301 5.64664 114.303 5.64773 114.305 5.64773C116.13 6.22723 117.438 7.80049 117.438 9.651V12.941C117.438 13.0768 117.439 13.2577 117.44 13.4409L117.44 13.4433V13.4496C117.443 13.8253 117.445 14.2076 117.438 14.2272H118.573C118.638 14.2338 118.703 14.2381 118.768 14.2381H122.625C123.354 14.2381 123.945 13.7026 123.945 13.0421V8.88883C123.945 8.58853 124.214 8.34521 124.545 8.34521H126.583C126.915 8.34521 127.183 8.58766 127.183 8.88883Z" fill="#00B088"/>
<path d="M113.166 18.6433H115.215C115.546 18.6433 115.815 18.8867 115.815 19.1869V21.0424C115.815 21.3427 115.546 21.586 115.215 21.586H113.166C112.834 21.586 112.566 21.3427 112.566 21.0424V19.1869C112.566 18.8867 112.834 18.6433 113.166 18.6433Z" fill="#00B088"/>
<path d="M124.959 18.6433H119.662C119.33 18.6433 119.062 18.8867 119.062 19.1869V21.0424C119.062 21.3427 119.33 21.586 119.662 21.586H124.959C125.291 21.586 125.559 21.3427 125.559 21.0424V19.1869C125.559 18.8867 125.291 18.6433 124.959 18.6433Z" fill="#00B088"/>
<path d="M61.0284 12.7583H63.0114C63.421 12.7583 63.7102 12.3948 63.5807 12.0427L60.7326 4.30245C60.651 4.08054 60.4216 3.93072 60.1633 3.93072H58.1803C57.7707 3.93072 57.4814 4.2943 57.6109 4.64635L60.4591 12.3866C60.5408 12.6086 60.77 12.7583 61.0284 12.7583Z" fill="#00B088"/>
<path d="M119.834 14.2271V14.238L118.768 14.2381C118.703 14.2381 118.638 14.2338 118.573 14.2272L119.834 14.2271Z" fill="#00B088"/>
<path d="M112.87 14.2294C112.898 14.2294 112.924 14.2283 112.95 14.2272L112.549 14.2271V14.2293L112.87 14.2294Z" fill="#00B088"/>
</svg>
