<svg width="40" height="40" viewBox="0 0 40 40" fill="none" xmlns="http://www.w3.org/2000/svg">
<path fill-rule="evenodd" clip-rule="evenodd" d="M20 6.95652C15.6809 6.95652 12.1739 10.4635 12.1739 14.7826C12.1739 19.1017 15.6809 22.6087 20 22.6087C24.3191 22.6087 27.8261 19.1017 27.8261 14.7826C27.8261 10.4635 24.3191 6.95652 20 6.95652ZM20 8.69565C23.3591 8.69565 26.087 11.4235 26.087 14.7826C26.087 18.1417 23.3591 20.8696 20 20.8696C16.6409 20.8696 13.913 18.1417 13.913 14.7826C13.913 11.4235 16.6409 8.69565 20 8.69565Z" fill="#059675"/>
<path fill-rule="evenodd" clip-rule="evenodd" d="M20 0C8.96174 0 0 8.96174 0 20C0 31.0383 8.96174 40 20 40C31.0383 40 40 31.0383 40 20C40 8.96174 31.0383 0 20 0ZM31.92 33.8296C29.8861 29.2687 25.3122 26.087 20 26.087C14.6878 26.087 10.1139 29.2687 8.08001 33.8296C11.28 36.5904 15.447 38.2609 20 38.2609C24.553 38.2609 28.72 36.5904 31.92 33.8296ZM33.2461 32.5652C36.3539 29.2896 38.2609 24.8661 38.2609 20C38.2609 9.92174 30.0783 1.73913 20 1.73913C9.92174 1.73913 1.73913 9.92174 1.73913 20C1.73913 24.8661 3.64609 29.2896 6.75391 32.5652C9.17391 27.6965 14.1991 24.3478 20 24.3478C25.8009 24.3478 30.8261 27.6965 33.2461 32.5652Z" fill="#059675"/>
</svg>
