<svg width="20" height="18" viewBox="0 0 20 18" fill="none" xmlns="http://www.w3.org/2000/svg">
<path fill-rule="evenodd" clip-rule="evenodd" d="M15.1749 13.472L9.9295 15.9339L5.50805 13.8586C4.00066 13.151 2.88032 11.9411 2.35355 10.4518C1.82738 8.9625 1.95744 7.37191 2.71971 5.97332L4.74775 2.25404L8.03054 3.74607C7.47283 4.14742 7.05544 4.6923 6.83058 5.32824C6.533 6.16988 6.60651 7.06894 7.0375 7.85938C7.92747 9.49129 10.0818 10.1477 11.8411 9.32179L13.8185 8.39348C14.2727 8.18028 14.4546 7.66575 14.2246 7.24429C13.9948 6.82319 13.4403 6.65424 12.9862 6.86744L11.009 7.79575C10.1573 8.19509 9.11324 7.87803 8.68244 7.08722C8.47335 6.70434 8.43788 6.26898 8.58194 5.86142C8.72599 5.45349 9.03303 5.12235 9.44569 4.92854L10.2982 4.52828C11.5853 3.92434 13.0495 3.8214 14.4203 4.23847C15.7911 4.65573 16.9046 5.54345 17.5559 6.7378C18.2072 7.93216 18.3182 9.29052 17.8686 10.5624C17.4187 11.8345 16.462 12.8675 15.1749 13.472ZM14.995 2.61326C13.3713 2.11903 11.6592 2.2004 10.0895 2.77728L4.73807 0.347977C4.2854 0.143371 3.73972 0.313967 3.51269 0.730675L1.07514 5.20109C0.0901847 7.00743 -0.0775215 9.06153 0.602566 10.9849C1.28265 12.9083 2.72934 14.4709 4.67619 15.3846L9.49395 17.6462C9.62777 17.7087 9.76946 17.7383 9.90938 17.7383H9.94958C10.0895 17.7383 10.2316 17.7087 10.365 17.6462L16.0071 14.9978C19.5717 13.3246 21.0044 9.27272 19.201 5.96557C18.3272 4.36365 16.8336 3.17314 14.995 2.61326Z" fill="#FFFFFE"/>
</svg>
